{
  "accessors": [
    {
      "bufferView": 1,
      "componentType": 5126,
      "count": 1052,
      "max": [
        -149.08352661132813,
        -434.9962463378906,
        83.93952941894531
      ],
      "min": [
        -387.67889404296875,
        -538.6943969726563,
        -0.4345616400241852
      ],
      "type": "VEC3"
    },
    {
      "bufferView": 1,
      "byteOffset": 12624,
      "componentType": 5126,
      "count": 1052,
      "max": [
        0.7422767281532288,
        0.9586727023124695,
        0.8806753158569336
      ],
      "min": [
        -0.7383162379264832,
        -0.9569952487945557,
        -0.9902439117431641
      ],
      "type": "VEC3"
    },
    {
      "bufferView": 0,
      "componentType": 5125,
      "count": 4743,
      "type": "SCALAR"
    }
  ],
  "asset": {
    "extras": {
      "author": "erginecem (https://sketchfab.com/erginecem)",
      "license": "CC-BY-4.0 (http://creativecommons.org/licenses/by/4.0/)",
      "source": "https://sketchfab.com/3d-models/bot-f100b1965fdf432db29b96409224fd6a",
      "title": "bot"
    },
    "generator": "Sketchfab-16.43.0",
    "version": "2.0"
  },
  "bufferViews": [
    {
      "buffer": 0,
      "byteLength": 18972,
      "name": "floatBufferViews",
      "target": 34963
    },
    {
      "buffer": 0,
      "byteLength": 25248,
      "byteOffset": 18972,
      "byteStride": 12,
      "name": "floatBufferViews",
      "target": 34962
    }
  ],
  "buffers": [
    {
      "byteLength": 44220,
      "uri": "scene.bin"
    }
  ],
  "extensionsUsed": [
    "KHR_materials_clearcoat",
    "KHR_materials_specular"
  ],
  "materials": [
    {
      "doubleSided": true,
      "extensions": {
        "KHR_materials_clearcoat": {
          "clearcoatFactor": 1.0,
          "clearcoatRoughnessFactor": 0.0
        },
        "KHR_materials_specular": {
          "specularColorFactor": [
            1.0,
            1.0,
            1.0
          ],
          "specularFactor": 1.0
        }
      },
      "name": "Scene_-_Root",
      "pbrMetallicRoughness": {
        "roughnessFactor": 0.0
      }
    }
  ],
  "meshes": [
    {
      "name": "Object_0",
      "primitives": [
        {
          "attributes": {
            "NORMAL": 1,
            "POSITION": 0
          },
          "indices": 2,
          "material": 0,
          "mode": 4
        }
      ]
    }
  ],
  "nodes": [
    {
      "children": [
        1
      ],
      "matrix": [
        1.0,
        0.0,
        0.0,
        0.0,
        0.0,
        2.220446049250313e-16,
        -1.0,
        0.0,
        0.0,
        1.0,
        2.220446049250313e-16,
        0.0,
        0.0,
        0.0,
        0.0,
        1.0
      ],
      "name": "Sketchfab_model"
    },
    {
      "children": [
        2
      ],
      "name": "52eaeb63934e4b2f8fb0d537d09c361e.stl.cleaner.materialmerger.gles"
    },
    {
      "mesh": 0,
      "name": "Object_2"
    }
  ],
  "scene": 0,
  "scenes": [
    {
      "name": "Sketchfab_Scene",
      "nodes": [
        0
      ]
    }
  ]
}
